<?xml version="1.0" standalone="no"?>
<!DOCTYPE svg PUBLIC "-//W3C//DTD SVG 20010904//EN"
 "http://www.w3.org/TR/2001/REC-SVG-20010904/DTD/svg10.dtd">
<svg version="1.0" xmlns="http://www.w3.org/2000/svg"
 width="512.000000pt" height="512.000000pt" viewBox="0 0 512.000000 512.000000"
 preserveAspectRatio="xMidYMid meet">

<g transform="translate(0.000000,512.000000) scale(0.100000,-0.100000)"
fill="#000000" stroke="none">
<path d="M4053 4895 c-76 -21 -109 -36 -209 -97 l-90 -55 -139 -6 c-77 -4
-183 -16 -235 -27 -119 -24 -234 -79 -261 -123 -23 -39 -23 -40 -1 -66 13 -17
47 -28 157 -51 138 -28 376 -94 445 -123 71 -30 117 -74 149 -139 40 -82 48
-141 26 -193 -27 -63 -156 -180 -324 -295 -85 -58 -190 -132 -235 -164 -99
-72 -465 -381 -715 -603 -101 -90 -233 -201 -295 -247 -256 -191 -929 -645
-1191 -803 -55 -33 -161 -92 -235 -132 -242 -131 -410 -251 -540 -387 -126
-132 -151 -231 -48 -195 24 8 33 8 39 0 9 -16 132 -7 218 16 35 9 65 14 67 12
2 -2 -112 -81 -253 -175 -397 -263 -436 -303 -337 -351 25 -12 42 -12 128 2
55 9 102 15 103 13 1 -1 -9 -19 -22 -39 -39 -56 -47 -84 -30 -101 21 -21 62
-13 260 51 255 83 271 90 665 291 201 102 421 213 490 247 l125 62 140 12
c187 16 382 46 540 83 117 27 142 30 250 25 119 -4 254 -32 348 -72 l37 -15 0
-214 0 -214 44 -54 c24 -29 97 -102 164 -162 107 -96 140 -132 129 -142 -1 -2
-53 -7 -114 -12 -159 -14 -245 -57 -312 -156 -62 -92 -43 -108 52 -43 141 97
233 109 452 58 167 -39 247 -40 375 -4 77 22 117 27 210 27 127 1 152 -5 274
-66 43 -21 81 -37 83 -34 17 17 -50 93 -132 152 l-30 21 111 27 c178 42 292
33 434 -36 96 -47 99 -48 105 -38 10 16 -93 117 -151 150 -29 17 -91 40 -139
52 -52 12 -89 27 -92 36 -11 28 95 91 155 92 45 0 103 -25 129 -57 28 -34 46
-21 37 25 -9 44 -52 88 -100 101 -113 31 -309 -6 -449 -86 -29 -17 -56 -23
-101 -23 l-60 0 -102 102 c-115 117 -159 170 -177 213 -7 17 -16 98 -20 181
l-7 151 113 62 c180 100 273 164 371 259 205 197 378 452 551 812 167 346 237
566 237 746 0 35 -9 153 -21 261 -16 155 -19 221 -13 303 14 182 9 285 -21
384 -53 183 -210 451 -340 582 -118 119 -205 160 -394 189 -123 18 -209 18
-278 0z m-493 -3842 c0 -132 7 -143 233 -349 85 -76 115 -109 105 -115 -7 -4
-62 -12 -122 -18 -59 -5 -110 -12 -113 -15 -16 -16 -192 166 -255 263 -26 43
-28 51 -28 156 l0 112 78 30 c42 17 83 31 90 32 9 1 12 -25 12 -96z"/>
</g>
</svg>
